<?xml version="1.0" standalone="no"?>
<!DOCTYPE svg PUBLIC "-//W3C//DTD SVG 20010904//EN"
 "http://www.w3.org/TR/2001/REC-SVG-20010904/DTD/svg10.dtd">
<svg version="1.0" xmlns="http://www.w3.org/2000/svg"
 width="816.000000pt" height="792.000000pt" viewBox="0 0 816.000000 792.000000"
 preserveAspectRatio="xMidYMid meet">
<metadata>
Created by potrace 1.10, written by Peter Selinger 2001-2011
</metadata>
<g transform="translate(0.000000,792.000000) scale(0.100000,-0.100000)"
fill="#000000" stroke="none">
<path d="M1750 6818 c-19 -4 -78 -10 -130 -13 -52 -4 -117 -13 -145 -20 -27
-7 -70 -16 -95 -20 -154 -23 -405 -123 -553 -220 -38 -25 -72 -45 -75 -46 -4
0 -41 -25 -82 -54 -41 -30 -98 -70 -126 -89 -28 -20 -84 -70 -123 -112 -62
-66 -71 -81 -71 -114 0 -49 38 -100 132 -180 40 -34 84 -72 98 -84 24 -21 56
-43 180 -126 68 -46 283 -150 370 -180 36 -12 79 -29 97 -36 17 -8 41 -14 52
-14 12 0 24 -7 28 -16 6 -17 -30 -61 -62 -75 -54 -25 -163 -104 -267 -195
-212 -183 -379 -421 -498 -709 -16 -38 -32 -83 -36 -100 -4 -16 -10 -34 -14
-40 -5 -5 -11 -28 -15 -50 -4 -22 -13 -59 -21 -83 -8 -23 -14 -62 -14 -85 0
-23 -7 -67 -15 -97 -11 -40 -15 -111 -15 -260 0 -194 2 -207 23 -245 33 -59
73 -81 159 -89 100 -8 420 11 488 29 30 8 65 15 79 15 24 0 170 41 221 62 14
6 39 14 55 19 74 19 241 98 285 134 8 6 22 15 30 19 77 34 189 124 335 271
118 118 140 144 185 210 18 28 36 52 40 55 12 10 96 156 129 225 18 39 42 87
52 108 10 21 19 46 19 55 0 10 4 22 9 28 6 5 14 27 20 49 5 22 14 54 19 70 21
60 33 123 58 284 13 91 29 170 35 177 9 11 67 40 209 106 30 14 105 49 165 78
187 89 268 127 330 155 66 30 185 86 370 175 66 32 138 65 160 75 43 19 215
100 355 167 47 22 96 44 110 49 14 4 50 17 80 29 30 12 71 26 90 30 19 4 49
13 65 19 62 22 174 51 300 78 l130 27 1300 7 c744 4 1321 10 1350 16 135 25
214 126 215 271 0 70 -2 77 -42 137 -29 42 -55 69 -83 83 -96 49 -50 47 -1381
40 -687 -4 -1296 -11 -1354 -16 -141 -12 -369 -61 -575 -122 -38 -12 -88 -26
-110 -31 -22 -6 -44 -14 -49 -20 -6 -5 -19 -9 -31 -9 -11 0 -29 -6 -40 -13
-11 -7 -60 -30 -110 -51 -49 -21 -94 -42 -99 -47 -6 -5 -17 -9 -25 -9 -9 0
-74 -29 -146 -64 -71 -35 -157 -76 -190 -91 -33 -14 -78 -35 -100 -45 -176
-81 -201 -86 -243 -42 -50 53 -297 231 -372 268 -8 5 -39 24 -70 44 -30 20
-77 47 -105 60 -27 12 -62 29 -77 36 -14 8 -33 14 -41 14 -8 0 -36 10 -63 21
-47 21 -101 36 -234 65 -36 8 -83 19 -105 24 -22 5 -68 9 -102 10 -34 0 -84 4
-110 9 -67 14 -172 18 -213 9z"/>
<path d="M4110 5306 c-47 -7 -105 -18 -130 -25 -25 -7 -70 -19 -100 -28 -110
-31 -246 -96 -375 -181 -109 -71 -314 -266 -402 -382 -51 -67 -143 -206 -143
-216 0 -4 -13 -26 -30 -51 -16 -24 -30 -48 -30 -52 0 -5 -11 -28 -24 -52 -13
-24 -41 -84 -61 -134 -20 -49 -43 -105 -51 -123 -8 -18 -14 -39 -14 -47 0 -8
-6 -29 -14 -47 -12 -29 -27 -88 -81 -323 -8 -33 -19 -100 -25 -150 -6 -49 -15
-112 -20 -140 -12 -65 -12 -485 0 -550 5 -27 14 -90 20 -140 6 -49 17 -117 25
-150 54 -235 69 -294 81 -323 8 -18 14 -39 14 -47 0 -8 6 -29 14 -47 8 -18 31
-73 51 -123 20 -49 48 -110 61 -134 13 -24 24 -47 24 -52 0 -4 14 -28 30 -52
17 -25 30 -48 30 -51 0 -9 94 -150 148 -223 78 -104 288 -303 390 -371 130
-85 274 -155 382 -185 30 -8 80 -22 110 -30 103 -29 278 -42 388 -29 113 13
232 38 280 58 18 8 40 14 48 14 29 0 267 114 286 137 6 7 15 13 20 13 8 0 65
37 78 50 3 3 37 30 75 60 83 64 150 131 225 224 30 38 60 74 65 80 6 6 32 45
59 86 27 41 61 93 76 115 28 40 150 285 150 301 1 5 9 27 20 49 11 22 19 48
20 57 0 9 6 29 14 45 8 15 19 48 26 73 6 25 24 97 40 160 17 63 30 126 30 138
0 13 7 47 15 75 23 83 38 276 38 497 0 297 -14 416 -83 705 -44 184 -51 208
-66 238 -8 16 -14 35 -14 44 0 8 -6 29 -14 46 -8 18 -27 61 -41 97 -30 72
-114 235 -144 278 -10 15 -40 61 -67 102 -27 41 -53 80 -59 86 -5 6 -35 42
-65 80 -75 93 -142 160 -225 224 -38 30 -72 57 -75 60 -13 13 -70 50 -78 50
-5 0 -14 6 -20 13 -20 24 -257 137 -287 137 -9 0 -26 5 -37 11 -51 27 -302 69
-403 68 -38 -1 -108 -7 -155 -13z"/>
<path d="M5405 5310 c-3 -6 15 -29 41 -53 101 -91 219 -216 288 -307 79 -104
166 -228 166 -237 0 -4 6 -14 14 -22 20 -24 121 -214 169 -321 46 -102 117
-290 117 -311 0 -11 5 -29 11 -40 21 -40 84 -327 99 -454 6 -49 16 -117 21
-150 16 -100 22 -421 10 -555 -13 -147 -48 -419 -57 -440 -4 -8 -13 -44 -20
-80 -15 -77 -32 -144 -46 -185 -5 -16 -13 -46 -17 -65 -7 -35 -34 -105 -93
-250 -33 -81 -143 -306 -162 -330 -6 -8 -20 -31 -30 -50 -11 -19 -32 -54 -48
-78 -15 -24 -28 -53 -28 -66 0 -25 20 -32 160 -57 30 -6 85 -17 121 -25 94
-20 497 -19 554 1 22 8 54 15 70 15 78 0 340 113 475 204 124 84 316 288 363
386 4 8 21 38 37 65 17 28 36 61 42 75 6 14 17 41 26 60 8 19 19 43 24 53 12
25 63 198 79 267 14 65 27 464 18 565 -10 105 -26 190 -65 330 -43 154 -46
163 -96 290 -35 92 -173 360 -231 451 -72 112 -233 324 -314 416 -37 42 -76
88 -86 103 -10 14 -42 44 -70 67 -29 22 -81 67 -117 100 -71 65 -269 217 -322
245 -18 10 -60 36 -92 57 -32 20 -68 42 -80 47 -12 5 -28 13 -36 18 -57 36
-343 161 -367 161 -6 0 -24 7 -39 15 -16 8 -39 15 -51 15 -12 0 -34 5 -50 11
-31 12 -143 34 -278 54 -110 17 -103 17 -110 5z"/>
</g>
</svg>
