<?xml version="1.0" encoding="UTF-8"?>
<!DOCTYPE svg PUBLIC "-//W3C//DTD SVG 1.1//EN" "http://www.w3.org/Graphics/SVG/1.1/DTD/svg11.dtd">
<svg xmlns="http://www.w3.org/2000/svg" version="1.1" width="921px" height="165px" style="shape-rendering:geometricPrecision; text-rendering:geometricPrecision; image-rendering:optimizeQuality; fill-rule:evenodd; clip-rule:evenodd" xmlns:xlink="http://www.w3.org/1999/xlink">
<g><path style="opacity:0.819" fill="#594ae2" d="M 172.5,13.5 C 173.5,13.5 174.5,13.5 175.5,13.5C 175.5,58.1667 175.5,102.833 175.5,147.5C 174.5,147.5 173.5,147.5 172.5,147.5C 172.5,102.833 172.5,58.1667 172.5,13.5 Z"/></g>
<g><path style="opacity:0.959" fill="#5949e2" d="M 43.5,32.5 C 46.8333,32.5 50.1667,32.5 53.5,32.5C 53.5,34.5 53.5,36.5 53.5,38.5C 71.8333,38.5 90.1667,38.5 108.5,38.5C 108.5,36.5 108.5,34.5 108.5,32.5C 111.833,32.5 115.167,32.5 118.5,32.5C 118.241,36.0681 116.241,37.4015 112.5,36.5C 112.5,47.1667 112.5,57.8333 112.5,68.5C 114.833,68.5 117.167,68.5 119.5,68.5C 119.5,72.8333 119.5,77.1667 119.5,81.5C 117.167,81.5 114.833,81.5 112.5,81.5C 113.999,90.0835 114.666,98.7502 114.5,107.5C 116.167,107.5 117.833,107.5 119.5,107.5C 119.819,117.416 119.486,127.25 118.5,137C 115.209,139.074 112.043,138.908 109,136.5C 108,121.833 107,121.833 106,136.5C 102.26,139.413 98.9263,139.08 96,135.5C 95.5017,132.183 95.335,128.85 95.5,125.5C 85.5,125.5 75.5,125.5 65.5,125.5C 65.5,129.5 65.5,133.5 65.5,137.5C 63.6583,137.723 61.825,138.057 60,138.5C 58.1878,138.507 56.6878,137.84 55.5,136.5C 54.7382,132.889 54.2382,129.222 54,125.5C 53.7618,129.222 53.2618,132.889 52.5,136.5C 49.6668,138.535 46.6668,138.868 43.5,137.5C 42.5015,127.522 42.1681,117.522 42.5,107.5C 43.8333,107.5 45.1667,107.5 46.5,107.5C 46.3338,101.491 46.5005,95.4908 47,89.5C 49.1651,87.3475 49.9984,84.6808 49.5,81.5C 47.1667,81.5 44.8333,81.5 42.5,81.5C 42.5,77.1667 42.5,72.8333 42.5,68.5C 44.8333,68.5 47.1667,68.5 49.5,68.5C 49.5,57.8333 49.5,47.1667 49.5,36.5C 47.5,36.5 45.5,36.5 43.5,36.5C 43.5,35.1667 43.5,33.8333 43.5,32.5 Z M 59.5,63.5 C 73.8333,63.5 88.1667,63.5 102.5,63.5C 102.666,71.84 102.5,80.1733 102,88.5C 101.5,80.5069 101.334,72.5069 101.5,64.5C 87.8333,64.5 74.1667,64.5 60.5,64.5C 60.6664,72.5069 60.4997,80.5069 60,88.5C 59.5003,80.1733 59.3336,71.84 59.5,63.5 Z M 65.5,69.5 C 70.1667,69.5 74.8333,69.5 79.5,69.5C 79.5,73.1667 79.5,76.8333 79.5,80.5C 74.8333,80.5 70.1667,80.5 65.5,80.5C 65.5,76.8333 65.5,73.1667 65.5,69.5 Z M 82.5,69.5 C 87.1667,69.5 91.8333,69.5 96.5,69.5C 96.5,73.1667 96.5,76.8333 96.5,80.5C 91.8333,80.5 87.1667,80.5 82.5,80.5C 82.5,76.8333 82.5,73.1667 82.5,69.5 Z M 66.5,89.5 C 75.8571,89.1684 85.1904,89.5017 94.5,90.5C 89.8333,90.8333 85.1667,91.1667 80.5,91.5C 75.4492,91.4933 70.7825,90.8266 66.5,89.5 Z M 66.5,94.5 C 75.8571,94.1684 85.1904,94.5017 94.5,95.5C 89.8333,95.8333 85.1667,96.1667 80.5,96.5C 75.4492,96.4933 70.7825,95.8266 66.5,94.5 Z M 53.5,100.5 C 56.2469,100.187 58.9135,100.52 61.5,101.5C 60.1667,101.833 58.8333,102.167 57.5,102.5C 55.6672,102.415 54.3339,101.748 53.5,100.5 Z M 66.5,100.5 C 75.8571,100.168 85.1904,100.502 94.5,101.5C 89.8333,101.833 85.1667,102.167 80.5,102.5C 75.4492,102.493 70.7825,101.827 66.5,100.5 Z M 100.5,100.5 C 103.247,100.187 105.914,100.52 108.5,101.5C 107.167,101.833 105.833,102.167 104.5,102.5C 102.667,102.415 101.334,101.748 100.5,100.5 Z M 66.5,105.5 C 75.8571,105.168 85.1904,105.502 94.5,106.5C 89.8333,106.833 85.1667,107.167 80.5,107.5C 75.4492,107.493 70.7825,106.827 66.5,105.5 Z"/></g>
<g><path style="opacity:0.949" fill="#5949e3" d="M 306.5,50.5 C 311.58,50.2497 316.58,50.7497 321.5,52C 329.276,55.7167 332.776,61.8834 332,70.5C 327.934,71.4637 323.767,71.797 319.5,71.5C 318.771,63.7576 314.771,61.2576 307.5,64C 306.283,65.6477 305.45,67.481 305,69.5C 304.124,78.2296 304.458,86.8963 306,95.5C 313.69,100.891 318.19,98.8913 319.5,89.5C 316.552,89.7771 313.719,89.4438 311,88.5C 309.977,84.6831 310.477,81.1831 312.5,78C 319.082,77.19 325.582,77.3567 332,78.5C 336.48,105.485 325.646,115.318 299.5,108C 296.894,106.062 295.061,103.562 294,100.5C 291.062,88.261 290.729,75.9276 293,63.5C 294.793,56.2046 299.293,51.8713 306.5,50.5 Z"/></g>
<g><path style="opacity:0.947" fill="#5949e3" d="M 447.5,50.5 C 462.214,47.8414 471.214,53.6747 474.5,68C 474.265,68.8732 473.931,69.7065 473.5,70.5C 469.541,71.6599 465.541,71.8265 461.5,71C 458.657,61.9659 453.824,60.4659 447,66.5C 444.714,76.6277 445.048,86.6277 448,96.5C 451.308,98.9925 454.808,99.1592 458.5,97C 460.113,94.7724 460.78,92.2724 460.5,89.5C 457.881,89.7683 455.381,89.435 453,88.5C 452.211,84.9085 452.378,81.4085 453.5,78C 459.833,77.3333 466.167,77.3333 472.5,78C 473,78.5 473.5,79 474,79.5C 476.81,106.988 465.31,116.155 439.5,107C 437.383,105.269 435.883,103.102 435,100.5C 432.171,88.5731 431.838,76.5731 434,64.5C 435.059,61.3821 436.392,58.3821 438,55.5C 440.907,53.1317 444.074,51.465 447.5,50.5 Z"/></g>
<g><path style="opacity:0.946" fill="#5949e3" d="M 520.5,50.5 C 535.489,47.8572 544.489,53.8572 547.5,68.5C 547.167,69.1667 546.833,69.8333 546.5,70.5C 542.541,71.6599 538.541,71.8265 534.5,71C 531.657,61.9659 526.824,60.4659 520,66.5C 518.571,74.1188 518.238,81.7854 519,89.5C 519.425,98.26 523.591,100.76 531.5,97C 532.877,94.6668 533.877,92.1668 534.5,89.5C 538.715,88.2023 542.882,88.2023 547,89.5C 547.53,99.2858 543.363,106.119 534.5,110C 528.083,110.87 521.749,110.536 515.5,109C 510.564,106.303 507.73,102.136 507,96.5C 505,85.8333 505,75.1667 507,64.5C 508.059,61.3821 509.392,58.3821 511,55.5C 513.907,53.1317 517.074,51.465 520.5,50.5 Z"/></g>
<g><path style="opacity:0.947" fill="#5949e3" d="M 567.5,50.5 C 589.472,48.4759 598.805,58.4759 595.5,80.5C 597.901,105.94 586.901,115.107 562.5,108C 558.365,104.909 555.865,100.742 555,95.5C 552.75,84.0853 553.084,72.752 556,61.5C 558.067,55.9006 561.9,52.2339 567.5,50.5 Z M 571.5,62.5 C 577.913,61.4479 581.413,64.1146 582,70.5C 582.863,78.5643 582.53,86.5643 581,94.5C 578.434,98.4086 574.934,99.4086 570.5,97.5C 569.667,96.5 568.833,95.5 568,94.5C 566.501,84.9942 566.501,75.6608 568,66.5C 569.032,64.9733 570.199,63.64 571.5,62.5 Z"/></g>
<g><path style="opacity:0.954" fill="#5a49e3" d="M 616.5,50.5 C 626.282,48.6452 634.448,51.3119 641,58.5C 644.803,71.2888 645.47,84.2888 643,97.5C 639.777,107.046 633.111,111.379 623,110.5C 613.174,111.098 606.841,106.765 604,97.5C 602,86.1667 602,74.8333 604,63.5C 605.682,56.6529 609.849,52.3196 616.5,50.5 Z M 619.5,62.5 C 624.809,61.5655 628.309,63.5655 630,68.5C 630.667,76.5 630.667,84.5 630,92.5C 629.151,96.5122 626.651,98.5122 622.5,98.5C 618.466,97.9644 616.299,95.631 616,91.5C 615.333,84.1667 615.333,76.8333 616,69.5C 616.133,66.5958 617.3,64.2624 619.5,62.5 Z"/></g>
<g><path style="opacity:0.947" fill="#5949e3" d="M 762.5,50.5 C 784.472,48.4759 793.805,58.4759 790.5,80.5C 792.901,105.94 781.901,115.107 757.5,108C 753.365,104.909 750.865,100.742 750,95.5C 747.75,84.0853 748.084,72.752 751,61.5C 753.067,55.9006 756.9,52.2339 762.5,50.5 Z M 766.5,62.5 C 772.913,61.4479 776.413,64.1146 777,70.5C 777.863,78.5643 777.53,86.5643 776,94.5C 773.434,98.4086 769.934,99.4086 765.5,97.5C 764.667,96.5 763.833,95.5 763,94.5C 761.501,84.9942 761.501,75.6608 763,66.5C 764.032,64.9733 765.199,63.64 766.5,62.5 Z"/></g>
<g><path style="opacity:0.954" fill="#5a49e3" d="M 811.5,50.5 C 821.282,48.6452 829.448,51.3119 836,58.5C 839.803,71.2888 840.47,84.2888 838,97.5C 834.777,107.046 828.111,111.379 818,110.5C 808.174,111.098 801.841,106.765 799,97.5C 797,86.1667 797,74.8333 799,63.5C 800.682,56.6529 804.849,52.3196 811.5,50.5 Z M 814.5,62.5 C 819.809,61.5655 823.309,63.5655 825,68.5C 825.667,76.5 825.667,84.5 825,92.5C 824.151,96.5122 821.651,98.5122 817.5,98.5C 813.466,97.9644 811.299,95.631 811,91.5C 810.333,84.1667 810.333,76.8333 811,69.5C 811.133,66.5958 812.3,64.2624 814.5,62.5 Z"/></g>
<g><path style="opacity:0.931" fill="#5949e3" d="M 848.5,50.5 C 851.85,50.335 855.183,50.5017 858.5,51C 859.167,52 859.833,53 860.5,54C 859.355,60.7524 859.189,67.5857 860,74.5C 865.131,66.404 870.631,58.5707 876.5,51C 881.155,50.5008 885.821,50.3342 890.5,50.5C 890.657,51.8734 890.49,53.2068 890,54.5C 883.446,62.7202 877.28,71.2202 871.5,80C 877.28,88.7798 883.446,97.2798 890,105.5C 890.667,106.5 890.667,107.5 890,108.5C 885.132,109.915 880.299,109.748 875.5,108C 870.333,100.833 865.167,93.6667 860,86.5C 859.5,94.1594 859.334,101.826 859.5,109.5C 855.233,109.797 851.066,109.464 847,108.5C 846.818,90.2981 846.651,72.1314 846.5,54C 846.978,52.6974 847.645,51.5307 848.5,50.5 Z"/></g>
<g><path style="opacity:0.961" fill="#5949e3" d="M 224.5,51.5 C 233.891,51.1473 243.225,51.6473 252.5,53C 261.392,56.9558 264.559,63.7891 262,73.5C 260.207,76.2953 258.04,78.7953 255.5,81C 265.662,89.2005 265.996,97.8671 256.5,107C 253.754,108.75 250.754,109.75 247.5,110C 239.587,110.814 231.754,110.647 224,109.5C 222.858,100.096 222.358,90.5956 222.5,81C 222.667,72.1667 222.833,63.3333 223,54.5C 223.513,53.4734 224.013,52.4734 224.5,51.5 Z M 235.5,63.5 C 239.182,63.3347 242.848,63.5014 246.5,64C 250.842,68.2481 250.508,71.9147 245.5,75C 242.183,75.4983 238.85,75.665 235.5,75.5C 235.5,71.5 235.5,67.5 235.5,63.5 Z M 235.5,86.5 C 239.605,86.2338 243.605,86.7338 247.5,88C 250.311,91.2935 249.978,94.2935 246.5,97C 242.848,97.4986 239.182,97.6653 235.5,97.5C 235.5,93.8333 235.5,90.1667 235.5,86.5 Z"/></g>
<g><path style="opacity:0.932" fill="#5a4ae2" d="M 272.5,51.5 C 275.85,51.335 279.183,51.5017 282.5,52C 283.167,53 283.833,54 284.5,55C 283.833,73.3333 283.167,91.6667 282.5,110C 278.577,110.793 274.744,110.626 271,109.5C 270.818,91.2981 270.651,73.1314 270.5,55C 270.978,53.6974 271.645,52.5307 272.5,51.5 Z"/></g>
<g><path style="opacity:0.961" fill="#5949e3" d="M 366.5,51.5 C 374.84,51.3336 383.173,51.5003 391.5,52C 404.143,55.6207 408.31,63.7874 404,76.5C 401.486,81.1798 397.653,84.1798 392.5,85.5C 395.929,92.7852 400.429,99.4519 406,105.5C 406.49,106.793 406.657,108.127 406.5,109.5C 401.821,109.666 397.155,109.499 392.5,109C 387.613,103.114 383.113,96.947 379,90.5C 378.126,96.5848 377.626,102.585 377.5,108.5C 373.87,110.055 370.203,110.388 366.5,109.5C 365.181,90.102 365.181,70.7687 366.5,51.5 Z M 379.5,62.5 C 382.91,62.7819 386.243,63.4486 389.5,64.5C 393.908,71.0754 392.075,74.742 384,75.5C 382.175,75.0566 380.342,74.7233 378.5,74.5C 378.237,70.3998 378.57,66.3998 379.5,62.5 Z"/></g>
<g><path style="opacity:0.952" fill="#5949e3" d="M 413.5,51.5 C 417.437,51.2065 421.27,51.5399 425,52.5C 425.711,71.8457 425.544,91.1791 424.5,110.5C 420.818,110.665 417.152,110.499 413.5,110C 412.643,109.311 411.977,108.478 411.5,107.5C 412.167,88.8036 412.833,70.137 413.5,51.5 Z"/></g>
<g><path style="opacity:0.938" fill="#5949e3" d="M 691.5,50.5 C 694.68,50.1762 695.847,51.5096 695,54.5C 688.464,63.0712 682.297,71.9046 676.5,81C 682.667,89.1667 688.833,97.3333 695,105.5C 695.49,106.793 695.657,108.127 695.5,109.5C 690.821,109.666 686.155,109.499 681.5,109C 675.878,101.589 670.378,94.0888 665,86.5C 664.667,94.1667 664.333,101.833 664,109.5C 659.942,109.902 655.775,109.902 651.5,109.5C 651.697,90.4364 651.863,71.4364 652,52.5C 656.118,51.2023 660.285,51.2023 664.5,52.5C 664.454,59.7192 664.62,67.0525 665,74.5C 670.378,66.9112 675.878,59.4112 681.5,52C 685.025,51.8213 688.359,51.3213 691.5,50.5 Z"/></g>
<g><path style="opacity:0.963" fill="#5949e3" d="M 702.5,51.5 C 711.506,51.3336 720.506,51.5002 729.5,52C 739.655,55.1327 743.488,61.966 741,72.5C 739.895,75.9371 737.728,78.4371 734.5,80C 744.913,89.0598 744.913,98.0598 734.5,107C 732.913,107.862 731.246,108.529 729.5,109C 720.482,109.832 711.482,109.665 702.5,108.5C 701.179,89.5001 701.179,70.5001 702.5,51.5 Z M 714.5,62.5 C 719.765,61.5706 724.265,62.9039 728,66.5C 728.944,69.3471 728.444,71.8471 726.5,74C 722.514,74.4988 718.514,74.6655 714.5,74.5C 714.5,70.5 714.5,66.5 714.5,62.5 Z M 714.5,86.5 C 718.571,86.2338 722.571,86.5672 726.5,87.5C 729.591,91.9713 728.591,95.138 723.5,97C 720.833,97.6667 718.167,97.6667 715.5,97C 714.544,93.6064 714.211,90.1064 714.5,86.5 Z"/></g>
</svg>
