<?xml version="1.0" encoding="UTF-8"?>
<!DOCTYPE svg PUBLIC "-//W3C//DTD SVG 1.1//EN" "http://www.w3.org/Graphics/SVG/1.1/DTD/svg11.dtd">
<svg xmlns="http://www.w3.org/2000/svg" version="1.1" width="107px" height="107px" style="shape-rendering:geometricPrecision; text-rendering:geometricPrecision; image-rendering:optimizeQuality; fill-rule:evenodd; clip-rule:evenodd" xmlns:xlink="http://www.w3.org/1999/xlink">
<g><path style="opacity:0.624" fill="#241e5c" d="M 80.5,6.5 C 62.0075,7.4969 43.3408,7.83024 24.5,7.5C 24.5,5.5 24.5,3.5 24.5,1.5C 21.7531,1.18665 19.0865,1.51998 16.5,2.5C 18.0453,3.45189 19.712,3.78522 21.5,3.5C 21.5,3.83333 21.5,4.16667 21.5,4.5C 19.5,4.5 17.5,4.5 15.5,4.5C 15.5,3.16667 15.5,1.83333 15.5,0.5C 18.8333,0.5 22.1667,0.5 25.5,0.5C 25.5,2.5 25.5,4.5 25.5,6.5C 43.8333,6.5 62.1667,6.5 80.5,6.5 Z"/></g>
<g><path style="opacity:0.624" fill="#2d2572" d="M 80.5,1.5 C 83.6248,0.520558 86.9581,0.187225 90.5,0.5C 90.7373,1.79105 90.404,2.79105 89.5,3.5C 87.0122,1.61216 84.0122,0.945498 80.5,1.5 Z"/></g>
<g><path style="opacity:1" fill="#5748dc" d="M 80.5,6.5 C 80.5,4.83333 80.5,3.16667 80.5,1.5C 84.0122,0.945498 87.0122,1.61216 89.5,3.5C 88.0813,4.45115 86.4147,4.78448 84.5,4.5C 84.5,15.1667 84.5,25.8333 84.5,36.5C 86.2646,37.4614 88.2646,37.7947 90.5,37.5C 90.5,41.1667 90.5,44.8333 90.5,48.5C 88.2646,48.2053 86.2646,48.5386 84.5,49.5C 83.8442,50.6216 83.5108,51.9549 83.5,53.5C 84.8773,60.9283 85.8773,68.2616 86.5,75.5C 88.1667,75.5 89.8333,75.5 91.5,75.5C 91.6665,85.1724 91.4998,94.8391 91,104.5C 90.0053,105.066 89.172,105.733 88.5,106.5C 86.8333,106.5 85.1667,106.5 83.5,106.5C 82.828,105.733 81.9947,105.066 81,104.5C 80,89.8333 79,89.8333 78,104.5C 77.0053,105.066 76.172,105.733 75.5,106.5C 73.8333,106.5 72.1667,106.5 70.5,106.5C 69.5313,105.691 68.6979,104.691 68,103.5C 67.5017,100.183 67.335,96.8499 67.5,93.5C 57.5,93.5 47.5,93.5 37.5,93.5C 37.5,97.5 37.5,101.5 37.5,105.5C 36.209,105.263 35.209,105.596 34.5,106.5C 32.8333,106.5 31.1667,106.5 29.5,106.5C 28.5313,105.691 27.6979,104.691 27,103.5C 26.3333,90.1667 25.6667,90.1667 25,103.5C 24.015,104.814 22.8484,105.814 21.5,106.5C 19.8333,106.5 18.1667,106.5 16.5,106.5C 16.5,106.167 16.5,105.833 16.5,105.5C 15.5259,95.5824 15.1926,85.5824 15.5,75.5C 16.5,75.5 17.5,75.5 18.5,75.5C 18.3338,69.4908 18.5005,63.4908 19,57.5C 21.1651,55.3475 21.9984,52.6808 21.5,49.5C 19.1667,49.5 16.8333,49.5 14.5,49.5C 14.5,45.5 14.5,41.5 14.5,37.5C 17.1667,37.5 19.8333,37.5 22.5,37.5C 22.8281,25.9877 22.4948,14.6544 21.5,3.5C 19.712,3.78522 18.0453,3.45189 16.5,2.5C 19.0865,1.51998 21.7531,1.18665 24.5,1.5C 24.5,3.5 24.5,5.5 24.5,7.5C 43.3408,7.83024 62.0075,7.4969 80.5,6.5 Z M 74.5,56.5 C 73.5076,48.6841 73.1743,40.6841 73.5,32.5C 59.8333,32.5 46.1667,32.5 32.5,32.5C 32.8257,40.6841 32.4924,48.6841 31.5,56.5C 31.5,48.1667 31.5,39.8333 31.5,31.5C 45.8333,31.5 60.1667,31.5 74.5,31.5C 74.5,39.8333 74.5,48.1667 74.5,56.5 Z M 51.5,37.5 C 51.5,41.1667 51.5,44.8333 51.5,48.5C 46.8333,48.5 42.1667,48.5 37.5,48.5C 37.5,44.8333 37.5,41.1667 37.5,37.5C 42.1667,37.5 46.8333,37.5 51.5,37.5 Z M 54.5,48.5 C 54.5,44.8333 54.5,41.1667 54.5,37.5C 59.1667,37.5 63.8333,37.5 68.5,37.5C 68.5,41.1667 68.5,44.8333 68.5,48.5C 63.8333,48.5 59.1667,48.5 54.5,48.5 Z M 38.5,57.5 C 75.8333,58.1667 75.8333,58.8333 38.5,59.5C 38.5,58.8333 38.5,58.1667 38.5,57.5 Z M 66.5,62.5 C 57.5599,64.4722 48.2266,65.1389 38.5,64.5C 47.4401,62.5278 56.7734,61.8611 66.5,62.5 Z M 33.5,68.5 C 31.3647,70.369 28.6981,71.0356 25.5,70.5C 27.6353,68.631 30.3019,67.9644 33.5,68.5 Z M 38.5,68.5 C 48.2266,67.8611 57.5599,68.5278 66.5,70.5C 56.7734,71.1389 47.4401,70.4722 38.5,68.5 Z M 72.5,68.5 C 75.6981,67.9644 78.3647,68.631 80.5,70.5C 77.3019,71.0356 74.6353,70.369 72.5,68.5 Z M 38.5,73.5 C 48.2266,72.8611 57.5599,73.5278 66.5,75.5C 56.7734,76.1389 47.4401,75.4722 38.5,73.5 Z"/></g>
<g><path style="opacity:0.875" fill="#493cb9" d="M 21.5,3.5 C 22.4948,14.6544 22.8281,25.9877 22.5,37.5C 19.8333,37.5 17.1667,37.5 14.5,37.5C 16.6074,36.5318 18.9407,36.1984 21.5,36.5C 21.5,25.8333 21.5,15.1667 21.5,4.5C 21.5,4.16667 21.5,3.83333 21.5,3.5 Z"/></g>
<g><path style="opacity:0.125" fill="#0f0b22" d="M 75.5,56.5 C 75.1667,56.5 74.8333,56.5 74.5,56.5C 74.5,48.1667 74.5,39.8333 74.5,31.5C 60.1667,31.5 45.8333,31.5 31.5,31.5C 31.5,39.8333 31.5,48.1667 31.5,56.5C 31.1667,56.5 30.8333,56.5 30.5,56.5C 30.5,47.8333 30.5,39.1667 30.5,30.5C 45.5,30.5 60.5,30.5 75.5,30.5C 75.5,39.1667 75.5,47.8333 75.5,56.5 Z M 74.5,56.5 C 73.5076,48.6841 73.1743,40.6841 73.5,32.5C 59.8333,32.5 46.1667,32.5 32.5,32.5C 32.8257,40.6841 32.4924,48.6841 31.5,56.5C 31.5,48.1667 31.5,39.8333 31.5,31.5C 45.8333,31.5 60.1667,31.5 74.5,31.5C 74.5,39.8333 74.5,48.1667 74.5,56.5 Z M 51.5,37.5 C 51.5,41.1667 51.5,44.8333 51.5,48.5C 46.8333,48.5 42.1667,48.5 37.5,48.5C 37.5,44.8333 37.5,41.1667 37.5,37.5C 42.1667,37.5 46.8333,37.5 51.5,37.5 Z M 54.5,48.5 C 59.1667,48.5 63.8333,48.5 68.5,48.5C 68.5,44.8333 68.5,41.1667 68.5,37.5C 63.8333,37.5 59.1667,37.5 54.5,37.5C 54.5,41.1667 54.5,44.8333 54.5,48.5 Z"/></g>
<g><path style="opacity:0.749" fill="#4438ac" d="M 74.5,56.5 C 74.8333,56.5 75.1667,56.5 75.5,56.5C 74.791,57.404 73.791,57.7373 72.5,57.5C 72.5,49.5 72.5,41.5 72.5,33.5C 59.5,33.5 46.5,33.5 33.5,33.5C 33.5,41.5 33.5,49.5 33.5,57.5C 32.209,57.7373 31.209,57.404 30.5,56.5C 30.8333,56.5 31.1667,56.5 31.5,56.5C 32.4924,48.6841 32.8257,40.6841 32.5,32.5C 46.1667,32.5 59.8333,32.5 73.5,32.5C 73.1743,40.6841 73.5076,48.6841 74.5,56.5 Z M 51.5,37.5 C 51.5,41.1667 51.5,44.8333 51.5,48.5C 46.8333,48.5 42.1667,48.5 37.5,48.5C 37.5,44.8333 37.5,41.1667 37.5,37.5C 42.1667,37.5 46.8333,37.5 51.5,37.5 Z M 54.5,48.5 C 59.1667,48.5 63.8333,48.5 68.5,48.5C 68.5,44.8333 68.5,41.1667 68.5,37.5C 63.8333,37.5 59.1667,37.5 54.5,37.5C 54.5,41.1667 54.5,44.8333 54.5,48.5 Z"/></g>
<g><path style="opacity:0.502" fill="#2a226a" d="M 54.5,48.5 C 53.5166,44.7016 53.1832,40.7016 53.5,36.5C 58.8333,36.5 64.1667,36.5 69.5,36.5C 69.5,40.8333 69.5,45.1667 69.5,49.5C 64.3054,49.8205 59.3054,49.4872 54.5,48.5 Z M 54.5,48.5 C 59.1667,48.5 63.8333,48.5 68.5,48.5C 68.5,44.8333 68.5,41.1667 68.5,37.5C 63.8333,37.5 59.1667,37.5 54.5,37.5C 54.5,41.1667 54.5,44.8333 54.5,48.5 Z"/></g>
<g><path style="opacity:0.125" fill="#181539" d="M 51.5,37.5 C 46.8333,37.5 42.1667,37.5 37.5,37.5C 37.5,41.1667 37.5,44.8333 37.5,48.5C 37.1667,48.5 36.8333,48.5 36.5,48.5C 36.5,44.5 36.5,40.5 36.5,36.5C 41.6946,36.1795 46.6946,36.5128 51.5,37.5 Z"/></g>
<g><path style="opacity:0.624" fill="#31287e" d="M 84.5,36.5 C 86.8333,36.5 89.1667,36.5 91.5,36.5C 91.5,40.8333 91.5,45.1667 91.5,49.5C 89.1667,49.5 86.8333,49.5 84.5,49.5C 86.2646,48.5386 88.2646,48.2053 90.5,48.5C 90.5,44.8333 90.5,41.1667 90.5,37.5C 88.2646,37.7947 86.2646,37.4614 84.5,36.5 Z"/></g>
<g><path style="opacity:0.502" fill="#2e2675" d="M 51.5,37.5 C 52.4834,41.2984 52.8168,45.2984 52.5,49.5C 46.9738,49.8214 41.6405,49.4881 36.5,48.5C 36.8333,48.5 37.1667,48.5 37.5,48.5C 42.1667,48.5 46.8333,48.5 51.5,48.5C 51.5,44.8333 51.5,41.1667 51.5,37.5 Z"/></g>
<g><path style="opacity:0.749" fill="#3c3199" d="M 84.5,49.5 C 85.9995,58.0835 86.6662,66.7502 86.5,75.5C 85.8773,68.2616 84.8773,60.9283 83.5,53.5C 83.5108,51.9549 83.8442,50.6216 84.5,49.5 Z"/></g>
<g><path style="opacity:0.376" fill="#282164" d="M 38.5,57.5 C 47.9856,56.5062 57.6522,56.1729 67.5,56.5C 67.5,57.8333 67.5,59.1667 67.5,60.5C 57.6522,60.8271 47.9856,60.4938 38.5,59.5C 75.8333,58.8333 75.8333,58.1667 38.5,57.5 Z"/></g>
<g><path style="opacity:0.125" fill="#0b091c" d="M 66.5,62.5 C 67.404,63.209 67.7373,64.209 67.5,65.5C 57.6522,65.8271 47.9856,65.4938 38.5,64.5C 48.2266,65.1389 57.5599,64.4722 66.5,62.5 Z"/></g>
<g><path style="opacity:0.251" fill="#191540" d="M 33.5,68.5 C 30.3019,67.9644 27.6353,68.631 25.5,70.5C 24.596,69.791 24.2627,68.791 24.5,67.5C 27.7131,67.19 30.7131,67.5233 33.5,68.5 Z"/></g>
<g><path style="opacity:0.251" fill="#161237" d="M 38.5,68.5 C 47.9856,67.5062 57.6522,67.1729 67.5,67.5C 67.7373,68.791 67.404,69.791 66.5,70.5C 57.5599,68.5278 48.2266,67.8611 38.5,68.5 Z"/></g>
<g><path style="opacity:0.251" fill="#191540" d="M 72.5,68.5 C 75.2869,67.5233 78.2869,67.19 81.5,67.5C 81.7373,68.791 81.404,69.791 80.5,70.5C 78.3647,68.631 75.6981,67.9644 72.5,68.5 Z"/></g>
<g><path style="opacity:0.125" fill="#0b091c" d="M 38.5,73.5 C 47.9856,72.5062 57.6522,72.1729 67.5,72.5C 67.7373,73.791 67.404,74.791 66.5,75.5C 57.5599,73.5278 48.2266,72.8611 38.5,73.5 Z"/></g>
<g><path style="opacity:0.875" fill="#493cb8" d="M 15.5,75.5 C 15.1926,85.5824 15.5259,95.5824 16.5,105.5C 15.1725,100.881 14.5058,95.8806 14.5,90.5C 14.5007,85.3218 14.834,80.3218 15.5,75.5 Z"/></g>
</svg>
