<?xml version="1.0" encoding="UTF-8"?>
<!DOCTYPE svg PUBLIC "-//W3C//DTD SVG 1.1//EN" "http://www.w3.org/Graphics/SVG/1.1/DTD/svg11.dtd">
<svg xmlns="http://www.w3.org/2000/svg" version="1.1" width="601px" height="568px" style="shape-rendering:geometricPrecision; text-rendering:geometricPrecision; image-rendering:optimizeQuality; fill-rule:evenodd; clip-rule:evenodd" xmlns:xlink="http://www.w3.org/1999/xlink">
<g><path style="opacity:0.965" fill="#7E71E7" d="M 496.5,-0.5 C 499.167,-0.5 501.833,-0.5 504.5,-0.5C 507.832,1.13423 509.999,3.80089 511,7.5C 511.333,36.8333 511.667,66.1667 512,95.5C 523.422,102.656 530.088,112.989 532,126.5C 534.869,186.157 537.536,245.823 540,305.5C 540.463,247.827 541.296,190.161 542.5,132.5C 557.818,146.65 572.984,160.984 588,175.5C 588.5,242.166 588.667,308.833 588.5,375.5C 580.493,375.334 572.493,375.5 564.5,376C 565.669,378.007 566.335,380.173 566.5,382.5C 572.842,382.334 579.175,382.5 585.5,383C 591.967,384.694 596.134,388.86 598,395.5C 598.738,398.991 599.571,402.325 600.5,405.5C 600.5,418.5 600.5,431.5 600.5,444.5C 598.818,453.681 593.318,459.014 584,460.5C 581.333,464.167 577.833,466.667 573.5,468C 564.167,468.667 554.833,468.667 545.5,468C 539.026,465.526 534.526,461.026 532,454.5C 506.332,463.723 480.499,472.556 454.5,481C 453.45,504.579 447.95,527.079 438,548.5C 427.96,562.271 414.46,568.604 397.5,567.5C 385.167,567.5 372.833,567.5 360.5,567.5C 371.849,550.279 377.683,531.279 378,510.5C 375.291,526.962 369.625,542.296 361,556.5C 354.14,566.148 345.64,567.981 335.5,562C 328.327,555.149 323.16,546.982 320,537.5C 315.746,525.828 313.413,513.828 313,501.5C 318.404,499.142 323.904,496.975 329.5,495C 313.03,496.492 296.697,499.159 280.5,503C 243.82,502.791 207.153,501.791 170.5,500C 170.833,499.667 171.167,499.333 171.5,499C 139.5,496.333 107.5,493.667 75.5,491C 53.3993,483.8 31.3993,476.3 9.5,468.5C 8.33531,458.53 7.50198,448.53 7,438.5C 4.87262,446.804 2.87262,455.137 1,463.5C 0.500122,451.171 0.333455,438.838 0.5,426.5C 124.501,427.055 248.501,427.722 372.5,428.5C 372.667,444.503 372.5,460.503 372,476.5C 369.514,463.971 367.347,451.305 365.5,438.5C 362.925,453.43 360.759,468.43 359,483.5C 357.745,484.211 356.579,485.044 355.5,486C 360.857,485.11 366.19,483.777 371.5,482C 374.817,481.502 378.15,481.335 381.5,481.5C 380.18,454.529 380.18,427.696 381.5,401C 383.404,395.224 385.238,389.39 387,383.5C 397.536,378.12 403.369,369.454 404.5,357.5C 415.558,350.04 425.725,351.04 435,360.5C 441.481,370.273 445.814,380.939 448,392.5C 447.821,387.102 446.987,381.769 445.5,376.5C 474.488,374.934 503.488,373.601 532.5,372.5C 532.784,369.223 532.451,366.057 531.5,363C 516.53,363.953 501.53,364.286 486.5,364C 478.142,363.624 469.809,362.957 461.5,362C 456.931,361.734 452.597,360.734 448.5,359C 476.131,354.544 503.798,354.378 531.5,358.5C 531.5,355.167 531.5,351.833 531.5,348.5C 501.821,347.499 472.154,346.166 442.5,344.5C 440.167,344.833 437.833,345.167 435.5,345.5C 441.048,354.898 444.548,364.898 446,375.5C 438.533,358.697 427.366,344.864 412.5,334C 390.762,323.799 368.096,320.799 344.5,325C 352.671,327.918 359.671,332.585 365.5,339C 352.663,339.833 339.829,340.667 327,341.5C 325.833,341.167 324.667,340.833 323.5,340.5C 324.248,338.668 325.248,337.001 326.5,335.5C 326.167,335.167 325.833,334.833 325.5,334.5C 323.016,336.483 320.683,338.65 318.5,341C 306.846,342.802 300.846,349.302 300.5,360.5C 303.404,356.428 307.071,353.261 311.5,351C 338.168,350.288 364.835,349.954 391.5,350C 398.138,363.759 394.138,372.759 379.5,377C 370.167,379.333 360.833,381.667 351.5,384C 340.189,385.086 328.856,385.919 317.5,386.5C 308.67,386.166 302.837,381.833 300,373.5C 297.003,382.987 294.836,392.654 293.5,402.5C 297.167,402.5 300.833,402.5 304.5,402.5C 304.781,398.812 305.281,395.145 306,391.5C 306.414,391.043 306.914,390.709 307.5,390.5C 314.388,393.968 321.722,395.301 329.5,394.5C 340.94,394.712 352.107,393.046 363,389.5C 366.082,393.983 369.415,398.316 373,402.5C 373.499,407.823 373.666,413.156 373.5,418.5C 249.165,418.03 124.832,417.363 0.5,416.5C 0.5,411.5 0.5,406.5 0.5,401.5C 7.50793,401.666 14.5079,401.5 21.5,401C 22.879,397.026 24.5456,393.192 26.5,389.5C 27.9385,390.063 29.4385,390.397 31,390.5C 40.225,390.014 49.3916,389.181 58.5,388C 65.2092,385.317 68.7092,380.484 69,373.5C 66.5449,378.149 62.7116,380.983 57.5,382C 39.4051,384.059 22.0718,381.392 5.5,374C 2.87819,371.891 0.878192,369.391 -0.5,366.5C -0.5,363.5 -0.5,360.5 -0.5,357.5C 0.218569,354.28 2.21857,352.113 5.5,351C 23.3138,349.497 40.9804,348.831 58.5,349C 63.2083,350.378 66.7083,353.212 69,357.5C 69.2224,352.775 67.3891,348.942 63.5,346C 67.3951,344.734 71.3951,344.234 75.5,344.5C 75.3347,348.182 75.5014,351.848 76,355.5C 80.9845,326.26 85.3179,296.926 89,267.5C 91.9038,258.93 97.7372,253.43 106.5,251C 151.698,249.072 196.865,246.572 242,243.5C 254.994,243.491 262.994,249.824 266,262.5C 270.018,307.325 275.351,351.992 282,396.5C 282.485,352.784 281.152,309.117 278,265.5C 278.274,255.137 274.108,247.137 265.5,241.5C 275.597,240.542 283.931,244.042 290.5,252C 325.494,254.148 360.494,255.815 395.5,257C 382.144,255.497 368.811,253.831 355.5,252C 377.317,250.608 399.15,249.441 421,248.5C 425.056,248.627 425.556,250.127 422.5,253C 420.099,255.062 417.433,256.729 414.5,258C 427.62,257.554 435.12,250.72 437,237.5C 439.779,220.657 442.613,203.824 445.5,187C 443.566,180.02 438.899,177.02 431.5,178C 419.5,177.333 407.5,177.333 395.5,178C 410.258,179.297 424.758,181.797 439,185.5C 436.828,203.362 433.495,221.028 429,238.5C 427.833,239.667 426.667,240.833 425.5,242C 419.247,243.204 412.914,243.871 406.5,244C 375.499,245.218 344.499,246.385 313.5,247.5C 317.291,231.127 322.291,215.127 328.5,199.5C 343.132,196.895 357.798,194.395 372.5,192C 335.74,191.17 299.073,192.67 262.5,196.5C 260.833,196.333 259.167,196.167 257.5,196C 274.377,191.197 291.377,186.864 308.5,183C 291.925,183.397 275.425,184.897 259,187.5C 256.745,187.61 255.078,188.61 254,190.5C 245.581,203.672 236.915,216.672 228,229.5C 232.373,214.206 236.873,198.873 241.5,183.5C 235.589,182.716 231.255,179.716 228.5,174.5C 302.337,167.323 376.337,164.99 450.5,167.5C 452.114,155.145 453.948,142.812 456,130.5C 458.897,118.865 464.73,109.031 473.5,101C 456.789,109.075 445.622,122.242 440,140.5C 375.152,137.88 310.485,141.213 246,150.5C 244.833,150.167 243.667,149.833 242.5,149.5C 248.783,141.715 255.616,134.382 263,127.5C 263.333,92.8333 263.667,58.1667 264,23.5C 265.664,19.9158 268.497,18.2492 272.5,18.5C 276.503,18.2492 279.336,19.9158 281,23.5C 281.667,52.1667 281.667,80.8333 281,109.5C 279.398,111.369 278.398,113.369 278,115.5C 287.595,107.875 298.095,102.042 309.5,98C 303.667,103.833 297.833,109.667 292,115.5C 291.333,116.167 291.333,116.833 292,117.5C 314.995,97.9223 341.495,85.7556 371.5,81C 396.445,78.005 421.445,76.005 446.5,75C 435.839,84.8403 428.672,96.6736 425,110.5C 434.042,91.1249 448.875,78.6249 469.5,73C 477.997,70.0791 482.664,72.9124 483.5,81.5C 475.759,83.0375 468.759,86.2041 462.5,91C 467.745,90.0277 473.078,89.0277 478.5,88C 482.423,87.2073 486.256,87.374 490,88.5C 490.333,61.1667 490.667,33.8333 491,6.5C 491.967,3.37935 493.8,1.04602 496.5,-0.5 Z M 500.5,18.5 C 502.451,18.2267 503.951,18.8934 505,20.5C 505.167,25.1667 505.333,29.8333 505.5,34.5C 505.149,58.9774 504.316,83.3107 503,107.5C 501.93,80.6617 500.764,53.8284 499.5,27C 499.548,24.0812 499.881,21.2479 500.5,18.5 Z M 271.5,41.5 C 272.822,41.33 273.989,41.6634 275,42.5C 275.188,57.8454 274.688,73.1788 273.5,88.5C 271.731,72.7922 271.065,57.1255 271.5,41.5 Z M 456.5,141.5 C 465.797,138.672 473.964,140.672 481,147.5C 482.275,149.717 483.275,152.051 484,154.5C 484.833,178.84 484.666,203.174 483.5,227.5C 481.929,226.691 480.262,226.357 478.5,226.5C 478.374,206.826 478.708,187.159 479.5,167.5C 482.838,148.763 475.171,140.096 456.5,141.5 Z M 508.5,154.5 C 512.543,156.927 514.209,160.594 513.5,165.5C 516.545,165.342 519.379,166.009 522,167.5C 523.087,181.651 523.92,195.817 524.5,210C 526.495,221.173 521.828,226.006 510.5,224.5C 504.948,225.856 501.282,223.856 499.5,218.5C 506.5,202.5 513.5,186.5 520.5,170.5C 513.858,169.669 507.191,169.169 500.5,169C 503.273,166.353 506.606,165.186 510.5,165.5C 510.889,161.586 510.222,157.92 508.5,154.5 Z M 453.5,185.5 C 458.179,185.334 462.845,185.501 467.5,186C 468,186.5 468.5,187 469,187.5C 470.613,197.066 470.947,206.733 470,216.5C 469.31,219.196 467.81,221.363 465.5,223C 459.65,225.172 453.817,227.338 448,229.5C 449.407,214.815 451.24,200.148 453.5,185.5 Z M 521.5,227.5 C 522.664,254.997 522.83,282.664 522,310.5C 520.084,283.845 518.751,257.178 518,230.5C 519.145,229.364 520.312,228.364 521.5,227.5 Z M 474.5,232.5 C 483.968,231.989 493.301,232.822 502.5,235C 505.959,235.916 506.959,237.916 505.5,241C 504.207,241.49 502.873,241.657 501.5,241.5C 501.5,271.833 501.5,302.167 501.5,332.5C 496.5,332.5 491.5,332.5 486.5,332.5C 486.167,329.833 485.833,327.167 485.5,324.5C 489.846,324.666 494.179,324.499 498.5,324C 486.808,320.371 474.808,318.705 462.5,319C 467.096,317.714 471.763,316.881 476.5,316.5C 476.17,309.8 476.503,303.134 477.5,296.5C 478.353,302.81 478.353,309.144 477.5,315.5C 479.92,315.708 482.253,315.374 484.5,314.5C 485.578,308.508 485.578,302.508 484.5,296.5C 489.179,296.666 493.845,296.499 498.5,296C 487.525,292.167 476.191,290.167 464.5,290C 471.118,288.508 477.785,287.341 484.5,286.5C 484.625,280.797 484.292,275.13 483.5,269.5C 488.56,269.508 493.56,269.674 498.5,270C 495.36,268.284 492.027,266.951 488.5,266C 480.259,264.289 471.926,263.289 463.5,263C 470.026,260.995 476.693,259.828 483.5,259.5C 483.524,253.143 483.19,246.81 482.5,240.5C 487.893,240.494 493.227,240.661 498.5,241C 494.766,238.754 490.766,237.087 486.5,236C 480.857,235.136 475.19,234.469 469.5,234C 471.382,233.802 473.048,233.302 474.5,232.5 Z M 476.5,240.5 C 478.167,240.5 479.833,240.5 481.5,240.5C 481.851,246.262 481.351,251.928 480,257.5C 478.989,256.663 477.822,256.33 476.5,256.5C 476.5,251.167 476.5,245.833 476.5,240.5 Z M 306.5,266.5 C 338.182,265.102 369.849,266.935 401.5,272C 369.588,273.505 337.921,271.672 306.5,266.5 Z M 214.5,266.5 C 217.167,266.5 219.833,266.5 222.5,266.5C 221.056,298.629 219.223,330.629 217,362.5C 215.834,330.507 215,298.507 214.5,266.5 Z M 164.5,269.5 C 167.167,269.5 169.833,269.5 172.5,269.5C 171.442,302.214 169.608,334.881 167,367.5C 166.384,334.819 165.55,302.153 164.5,269.5 Z M 476.5,270.5 C 477.978,270.238 479.311,270.571 480.5,271.5C 479.726,275.779 479.226,280.113 479,284.5C 478.586,284.043 478.086,283.709 477.5,283.5C 476.508,279.217 476.174,274.884 476.5,270.5 Z M 116.5,272.5 C 119.167,272.5 121.833,272.5 124.5,272.5C 122.999,306.514 121.166,340.514 119,374.5C 118.243,340.492 117.41,306.492 116.5,272.5 Z M 253.5,274.5 C 260.07,311.075 262.903,348.075 262,385.5C 255.684,348.717 252.851,311.717 253.5,274.5 Z M 95.5,288.5 C 97.3748,321.265 95.2082,353.931 89,386.5C 88.003,353.622 90.1696,320.955 95.5,288.5 Z M 42.5,351.5 C 42.3146,353.196 41.4813,354.529 40,355.5C 39.4638,353.385 40.2971,352.052 42.5,351.5 Z M 339.5,352.5 C 337.5,354.671 335.666,357.004 334,359.5C 332.991,357.975 332.491,356.308 332.5,354.5C 334.921,354.122 337.254,353.455 339.5,352.5 Z M 367.5,354.5 C 373.152,354.962 374.985,357.962 373,363.5C 371.338,360.351 369.505,357.351 367.5,354.5 Z M 43.5,361.5 C 46.9633,369.547 52.63,371.38 60.5,367C 61.717,365.352 62.5503,363.519 63,361.5C 65.6694,369.865 62.6694,375.198 54,377.5C 45.196,375.544 41.696,370.21 43.5,361.5 Z M 340.5,361.5 C 343.971,369.729 349.971,372.229 358.5,369C 360.617,367.269 362.117,365.102 363,362.5C 365.689,371.766 362.189,377.433 352.5,379.5C 342.386,377.412 338.386,371.412 340.5,361.5 Z M 18.5,362.5 C 24.539,370.478 30.7057,370.478 37,362.5C 38.1667,372 34,376.167 24.5,375C 19.3534,372.211 17.3534,368.044 18.5,362.5 Z M 306.5,362.5 C 311.094,372.234 318.094,374.401 327.5,369C 328.794,366.913 329.961,364.746 331,362.5C 333.745,371.179 330.912,377.345 322.5,381C 309.127,381.794 303.794,375.627 306.5,362.5 Z M 514.5,436.5 C 515.487,430.195 515.653,423.862 515,417.5C 514.311,414.592 513.145,411.925 511.5,409.5C 497.052,412.69 482.552,415.69 468,418.5C 466.893,418.415 465.893,418.081 465,417.5C 464.505,415.527 464.338,413.527 464.5,411.5C 482.189,409.581 499.856,407.414 517.5,405C 499.62,402.612 481.62,401.112 463.5,400.5C 462.605,397.262 462.605,394.095 463.5,391C 470.505,390.566 477.505,390.066 484.5,389.5C 487.749,389.346 490.749,390.012 493.5,391.5C 509.75,387.352 523.583,391.352 535,403.5C 540.961,411.801 542.461,420.801 539.5,430.5C 537.189,431.497 534.856,431.997 532.5,432C 534.346,414.17 527.18,401.337 511,393.5C 510.5,393.667 510,393.833 509.5,394C 524.256,403.608 529.09,416.774 524,433.5C 521.2,435.495 518.033,436.495 514.5,436.5 Z M 134.5,401.5 C 162.502,401.333 190.502,401.5 218.5,402C 229.188,402.35 239.854,403.017 250.5,404C 201.166,407.323 151.833,407.323 102.5,404C 113.319,403.134 123.986,402.301 134.5,401.5 Z M 579.5,402.5 C 581.018,405.534 581.851,408.867 582,412.5C 583.058,425.284 582.391,437.951 580,450.5C 575.597,434.528 575.431,418.528 579.5,402.5 Z M 594.5,404.5 C 596.054,410.754 596.72,417.254 596.5,424C 596.333,428.833 596.167,433.667 596,438.5C 595.781,439.938 595.281,441.271 594.5,442.5C 592.959,436.46 592.293,430.294 592.5,424C 592.316,417.355 592.983,410.855 594.5,404.5 Z M 23.5,437.5 C 30.5918,438.002 32.9252,441.669 30.5,448.5C 28.7597,450.211 26.7597,451.044 24.5,451C 27.9652,444.759 25.9652,441.759 18.5,442C 20.0632,440.264 21.7299,438.764 23.5,437.5 Z M 55.5,437.5 C 62.6116,438.048 64.945,441.715 62.5,448.5C 60.7597,450.211 58.7597,451.044 56.5,451C 58.9845,448.716 59.1511,446.216 57,443.5C 54.9307,442.736 52.764,442.236 50.5,442C 52.0632,440.264 53.7299,438.764 55.5,437.5 Z M 87.5,437.5 C 94.6116,438.048 96.945,441.715 94.5,448.5C 92.7597,450.211 90.7597,451.044 88.5,451C 91.9652,444.759 89.9652,441.759 82.5,442C 84.0632,440.264 85.7299,438.764 87.5,437.5 Z M 119.5,437.5 C 126.592,438.002 128.925,441.669 126.5,448.5C 124.76,450.211 122.76,451.044 120.5,451C 123.965,444.759 121.965,441.759 114.5,442C 116.063,440.264 117.73,438.764 119.5,437.5 Z M 151.5,437.5 C 158.592,438.002 160.925,441.669 158.5,448.5C 156.76,450.211 154.76,451.044 152.5,451C 155.965,444.759 153.965,441.759 146.5,442C 148.063,440.264 149.73,438.764 151.5,437.5 Z M 183.5,437.5 C 190.592,438.002 192.925,441.669 190.5,448.5C 188.76,450.211 186.76,451.044 184.5,451C 187.965,444.759 185.965,441.759 178.5,442C 180.063,440.264 181.73,438.764 183.5,437.5 Z M 215.5,437.5 C 222.592,438.002 224.925,441.669 222.5,448.5C 220.76,450.211 218.76,451.044 216.5,451C 219.965,444.759 217.965,441.759 210.5,442C 212.063,440.264 213.73,438.764 215.5,437.5 Z M 247.5,437.5 C 254.592,438.002 256.925,441.669 254.5,448.5C 252.76,450.211 250.76,451.044 248.5,451C 251.965,444.759 249.965,441.759 242.5,442C 244.063,440.264 245.73,438.764 247.5,437.5 Z M 279.5,437.5 C 284.26,437.215 287.26,439.381 288.5,444C 287.618,448.558 284.952,450.891 280.5,451C 283.965,444.759 281.965,441.759 274.5,442C 276.063,440.264 277.73,438.764 279.5,437.5 Z M 311.5,437.5 C 316.26,437.215 319.26,439.381 320.5,444C 319.618,448.558 316.952,450.891 312.5,451C 314.984,448.716 315.151,446.216 313,443.5C 310.931,442.736 308.764,442.236 306.5,442C 308.063,440.264 309.73,438.764 311.5,437.5 Z M 343.5,437.5 C 350.592,438.002 352.925,441.669 350.5,448.5C 348.76,450.211 346.76,451.044 344.5,451C 347.965,444.759 345.965,441.759 338.5,442C 340.063,440.264 341.73,438.764 343.5,437.5 Z M 505.5,450.5 C 506.873,450.343 508.207,450.51 509.5,451C 492.973,456.509 476.473,462.009 460,467.5C 458.748,464.986 458.248,462.32 458.5,459.5C 474.391,457.021 490.058,454.021 505.5,450.5 Z M 97.5,459.5 C 99.5749,464.545 101.575,469.712 103.5,475C 114.087,477.98 124.754,480.647 135.5,483C 122.163,483.389 108.829,483.222 95.5,482.5C 96.6282,474.884 97.2948,467.217 97.5,459.5 Z M 193.5,460.5 C 195.739,465.216 197.405,470.216 198.5,475.5C 209.522,477.838 220.522,480.338 231.5,483C 218.163,483.389 204.829,483.222 191.5,482.5C 192.299,475.181 192.965,467.847 193.5,460.5 Z M 79.5,465.5 C 86.1926,465.685 89.0259,469.019 88,475.5C 86.5867,477.414 84.7534,478.747 82.5,479.5C 82.4779,477.098 82.3112,474.432 82,471.5C 79.9307,470.736 77.764,470.236 75.5,470C 76.3574,467.981 77.6908,466.481 79.5,465.5 Z M 253.5,466.5 C 263.043,470.18 263.71,474.847 255.5,480.5C 255.92,477.851 255.42,475.184 254,472.5C 247.115,471.239 246.948,469.239 253.5,466.5 Z M 419.5,474.5 C 421.932,475.75 424.266,477.25 426.5,479C 422.966,482.869 419.133,486.369 415,489.5C 416.369,484.55 417.869,479.55 419.5,474.5 Z M 398.5,488.5 C 394.673,486.877 390.673,485.877 386.5,485.5C 386.372,483.345 386.872,481.345 388,479.5C 392.332,481.675 395.832,484.675 398.5,488.5 Z M 430.5,492.5 C 434.296,488.202 438.296,484.036 442.5,480C 444.851,480.863 446.518,482.697 447.5,485.5C 442.049,488.426 436.382,490.76 430.5,492.5 Z M 342.5,497.5 C 343.859,502.553 345.692,507.553 348,512.5C 350.512,516.003 353.678,517.669 357.5,517.5C 355.513,523.643 351.68,527.977 346,530.5C 342.196,530.031 339.529,528.031 338,524.5C 333.461,516.383 330.628,507.716 329.5,498.5C 334.032,498.818 338.366,498.485 342.5,497.5 Z"/></g>
<g><path style="opacity:0.786" fill="#7E71E7" d="M 356.5,143.5 C 361.254,143.754 363.921,146.254 364.5,151C 363.231,155.959 360.231,157.792 355.5,156.5C 358.351,153.717 358.017,151.384 354.5,149.5C 353.522,149.977 352.689,150.643 352,151.5C 351.202,147.419 352.702,144.753 356.5,143.5 Z"/></g>
<g><path style="opacity:0.804" fill="#7E71E7" d="M 404.5,143.5 C 413.491,142.987 416.157,146.82 412.5,155C 410.231,156.558 407.898,156.724 405.5,155.5C 408.351,152.717 408.017,150.384 404.5,148.5C 401.787,151.214 400.954,150.547 402,146.5C 402.698,145.309 403.531,144.309 404.5,143.5 Z"/></g>
<g><path style="opacity:0.786" fill="#7E71E7" d="M 329.5,144.5 C 337.101,145.361 339.268,149.361 336,156.5C 333.539,158.509 331.039,158.676 328.5,157C 332.619,154.426 332.452,152.26 328,150.5C 326.739,150.759 325.739,151.426 325,152.5C 324.675,148.817 326.175,146.15 329.5,144.5 Z"/></g>
<g><path style="opacity:0.803" fill="#7E71E7" d="M 438.5,144.5 C 444.712,145.572 446.878,149.238 445,155.5C 442.488,158.51 439.655,159.01 436.5,157C 440.707,154.227 440.373,152.06 435.5,150.5C 432.787,153.214 431.954,152.547 433,148.5C 434.5,146.531 436.333,145.198 438.5,144.5 Z"/></g>
<g><path style="opacity:0.789" fill="#7E71E7" d="M 303.5,146.5 C 310.825,145.992 313.658,149.326 312,156.5C 309.79,159.29 306.956,160.123 303.5,159C 306.047,157.684 306.713,155.851 305.5,153.5C 303.424,152.9 301.424,152.567 299.5,152.5C 299.937,149.775 301.27,147.775 303.5,146.5 Z"/></g>
<g><path style="opacity:0.75" fill="#7E71E7" d="M 261.5,150.5 C 267.778,151.389 269.611,154.722 267,160.5C 265.192,162.396 263.025,162.896 260.5,162C 262.155,160.556 262.822,158.722 262.5,156.5C 260.856,156.286 259.356,156.62 258,157.5C 257.176,154.16 258.343,151.827 261.5,150.5 Z"/></g>
<g><path style="opacity:0.797" fill="#7E71E7" d="M 244.5,152.5 C 250.691,154.141 252.024,157.641 248.5,163C 246.833,163.667 245.167,163.667 243.5,163C 245.211,161.867 245.711,160.367 245,158.5C 243.578,158.406 242.078,158.072 240.5,157.5C 241.16,155.185 242.493,153.519 244.5,152.5 Z"/></g>
<g><path style="opacity:0.885" fill="#7E71E7" d="M 182.5,232.5 C 195.247,232.339 207.914,233.172 220.5,235C 212.444,237.88 204.11,239.88 195.5,241C 167.884,245.48 140.218,246.147 112.5,243C 120.93,240.059 129.597,238.059 138.5,237C 153.26,234.891 167.927,233.391 182.5,232.5 Z"/></g>
<g><path style="opacity:0.978" fill="#7E71E7" d="M 57.5,494.5 C 62.5713,495.69 67.5713,497.19 72.5,499C 96.1643,499.5 119.831,499.667 143.5,499.5C 143.667,510.505 143.5,521.505 143,532.5C 140.302,542.529 133.802,548.363 123.5,550C 108.167,550.667 92.8333,550.667 77.5,550C 69.1537,548.976 62.987,544.809 59,537.5C 57.5514,523.239 57.0514,508.906 57.5,494.5 Z"/></g>
</svg>
